grf
version=1
nRows=17
nColumns=37
inDegrees=no
endheader
time	ground_force_1_vx	ground_force_1_vy	ground_force_1_vz	ground_force_1_px	ground_force_1_py	ground_force_1_pz	ground_moment_1_mx	ground_moment_1_my	ground_moment_1_mz	ground_force_2_vx	ground_force_2_vy	ground_force_2_vz	ground_force_2_px	ground_force_2_py	ground_force_2_pz	ground_moment_2_mx	ground_moment_2_my	ground_moment_2_mz	ground_force_3_vx	ground_force_3_vy	ground_force_3_vz	ground_force_3_px	ground_force_3_py	ground_force_3_pz	ground_moment_3_mx	ground_moment_3_my	ground_moment_3_mz	ground_force_4_vx	ground_force_4_vy	ground_force_4_vz	ground_force_4_px	ground_force_4_py	ground_force_4_pz	ground_moment_4_mx	ground_moment_4_my	ground_moment_4_mz
      6.30000000	      0.00000000	     -0.00000000	      0.00000000	      0.00000000	      0.00000000	      0.00000000	      0.00000000	      0.00000000	      0.00000000	    -10.70102978	    117.19542694	   -416.33856201	   -263.59908058	  -1150.41484273	      0.00000000	      0.00000000	      0.00000000	   1364.59690472	      6.83526276	   -114.71040404	   -356.48382568	   -292.32162307	   -719.63122921	      0.00000000	      0.00000000	     -0.00000000	  -1545.08112463	      0.00000000	     -0.00000000	      0.00000000	      0.00000000	      0.00000000	      0.00000000	      0.00000000	      0.00000000	      0.00000000
      6.31000000	      0.00000000	     -0.00000000	      0.00000000	      0.00000000	      0.00000000	      0.00000000	      0.00000000	      0.00000000	      0.00000000	    -10.71690941	    116.91971588	   -416.16885376	   -263.91822877	  -1149.70165486	      0.00000000	      0.00000000	     -0.00000000	   1383.07688715	      6.56458814	   -113.75833187	   -355.86190796	   -292.86917976	   -720.25107372	      0.00000000	      0.00000000	     -0.00000000	  -1560.92576938	      0.00000000	     -0.00000000	      0.00000000	      0.00000000	      0.00000000	      0.00000000	      0.00000000	      0.00000000	      0.00000000
      6.32000000	      0.00000000	     -0.00000000	      0.00000000	      0.00000000	      0.00000000	      0.00000000	      0.00000000	      0.00000000	      0.00000000	    -10.70876789	    117.33406830	   -419.43927002	   -265.31485357	  -1150.71428210	      0.00000000	      0.00000000	      0.00000000	   1469.70741424	      5.90889276	   -113.07094626	   -356.98464966	   -293.09897030	   -719.13528178	      0.00000000	      0.00000000	     -0.00000000	  -1498.72201012	      0.00000000	     -0.00000000	      0.00000000	      0.00000000	      0.00000000	      0.00000000	      0.00000000	      0.00000000	      0.00000000
      6.33000000	      0.00000000	     -0.00000000	      0.00000000	      0.00000000	      0.00000000	      0.00000000	      0.00000000	      0.00000000	      0.00000000	     -9.89921951	    117.10140991	   -419.65341187	   -264.68318648	  -1151.00305951	      0.00000000	      0.00000000	      0.00000000	   1408.55725890	      5.90882125	   -112.85607199	   -353.96447754	   -293.42859384	   -720.95345642	      0.00000000	      0.00000000	     -0.00000000	  -1709.21093623	      0.00000000	     -0.00000000	      0.00000000	      0.00000000	      0.00000000	      0.00000000	      0.00000000	      0.00000000	      0.00000000
      6.34000000	      0.00000000	     -0.00000000	      0.00000000	      0.00000000	      0.00000000	      0.00000000	      0.00000000	      0.00000000	      0.00000000	     -9.97262192	    117.08225250	   -421.63284302	   -265.89234576	  -1151.17265061	      0.00000000	      0.00000000	      0.00000000	   1444.91310871	      5.94361275	   -112.55654196	   -352.63092041	   -293.14032153	   -721.88126976	      0.00000000	     -0.00000000	     -0.00000000	  -1674.45703891	      0.00000000	     -0.00000000	      0.00000000	      0.00000000	      0.00000000	      0.00000000	      0.00000000	      0.00000000	      0.00000000
      6.35000000	      0.00000000	     -0.00000000	      0.00000000	      0.00000000	      0.00000000	      0.00000000	      0.00000000	      0.00000000	      0.00000000	     -9.63231182	    117.54421234	   -422.54257202	   -266.24657784	  -1150.38781767	      0.00000000	      0.00000000	     -0.00000000	   1368.45644446	      5.42744370	   -112.27288866	   -354.58972168	   -293.45099287	   -720.26618009	      0.00000000	      0.00000000	     -0.00000000	  -1563.46475914	      0.00000000	     -0.00000000	      0.00000000	      0.00000000	      0.00000000	      0.00000000	      0.00000000	      0.00000000	      0.00000000
      6.36000000	      0.00000000	     -0.00000000	      0.00000000	      0.00000000	      0.00000000	      0.00000000	      0.00000000	      0.00000000	      0.00000000	     -9.07874203	    117.31220245	   -425.08901978	   -267.67570212	  -1151.11142714	      0.00000000	      0.00000000	      0.00000000	   1572.78625272	      6.15842797	   -111.63861138	   -353.41503906	   -293.41561015	   -720.72894279	      0.00000000	      0.00000000	     -0.00000000	  -1650.14781458	      0.00000000	     -0.00000000	      0.00000000	      0.00000000	      0.00000000	      0.00000000	      0.00000000	      0.00000000	      0.00000000
      6.37000000	      0.00000000	     -0.00000000	      0.00000000	      0.00000000	      0.00000000	      0.00000000	      0.00000000	      0.00000000	      0.00000000	     -9.04560566	    117.49067688	   -424.45568848	   -267.81729358	  -1150.22320780	      0.00000000	      0.00000000	      0.00000000	   1489.21169430	      6.31700778	   -111.79879816	   -353.41448975	   -293.94981424	   -721.09324665	      0.00000000	     -0.00000000	     -0.00000000	  -1670.53660740	      0.00000000	     -0.00000000	      0.00000000	      0.00000000	      0.00000000	      0.00000000	      0.00000000	      0.00000000	      0.00000000
      6.38000000	      0.00000000	     -0.00000000	      0.00000000	      0.00000000	      0.00000000	      0.00000000	      0.00000000	      0.00000000	      0.00000000	     -8.83184052	    117.02821350	   -424.80801392	   -268.34133756	  -1149.78761696	      0.00000000	      0.00000000	      0.00000000	   1498.70736193	      6.70685933	   -112.06189786	   -356.06222534	   -294.91289426	   -719.97659978	      0.00000000	      0.00000000	     -0.00000000	  -1697.52465178	      0.00000000	     -0.00000000	      0.00000000	      0.00000000	      0.00000000	      0.00000000	      0.00000000	      0.00000000	      0.00000000
      6.39000000	      0.00000000	     -0.00000000	      0.00000000	      0.00000000	      0.00000000	      0.00000000	      0.00000000	      0.00000000	      0.00000000	     -8.36853409	    117.36750793	   -427.06286621	   -268.82082059	  -1150.48385408	      0.00000000	      0.00000000	      0.00000000	   1526.82757756	      7.43342992	   -112.22180241	   -357.11019897	   -295.53110282	   -720.83630394	      0.00000000	      0.00000000	     -0.00000000	  -1736.49290828	      0.00000000	     -0.00000000	      0.00000000	      0.00000000	      0.00000000	      0.00000000	      0.00000000	      0.00000000	      0.00000000
      6.40000000	      0.00000000	     -0.00000000	      0.00000000	      0.00000000	      0.00000000	      0.00000000	      0.00000000	      0.00000000	      0.00000000	     -7.61783838	    117.29622650	   -427.35015869	   -269.04495462	  -1150.15365186	      0.00000000	      0.00000000	      0.00000000	   1387.27955591	      7.91337130	   -112.06312630	   -358.30090332	   -295.92707599	   -720.31803309	      0.00000000	      0.00000000	     -0.00000000	  -1854.17548164	      0.00000000	     -0.00000000	      0.00000000	      0.00000000	      0.00000000	      0.00000000	      0.00000000	      0.00000000	      0.00000000
      6.41000000	      0.00000000	     -0.00000000	      0.00000000	      0.00000000	      0.00000000	      0.00000000	      0.00000000	      0.00000000	      0.00000000	     -7.24373960	    117.36707306	   -428.12515259	   -270.17628800	  -1150.47636709	      0.00000000	      0.00000000	      0.00000000	   1594.99465543	      8.56957022	   -112.75216750	   -358.64483643	   -296.12109480	   -721.63968947	      0.00000000	      0.00000000	     -0.00000000	  -1847.68503413	      0.00000000	     -0.00000000	      0.00000000	      0.00000000	      0.00000000	      0.00000000	      0.00000000	      0.00000000	      0.00000000
      6.42000000	      0.00000000	     -0.00000000	      0.00000000	      0.00000000	      0.00000000	      0.00000000	      0.00000000	      0.00000000	      0.00000000	     -7.40447235	    117.13523865	   -426.50042725	   -270.44592827	  -1149.84023302	      0.00000000	      0.00000000	      0.00000000	   1473.69970521	      8.53405821	   -113.19289473	   -359.20773315	   -296.35956267	   -721.39272990	      0.00000000	      0.00000000	     -0.00000000	  -1772.48386768	      0.00000000	     -0.00000000	      0.00000000	      0.00000000	      0.00000000	      0.00000000	      0.00000000	      0.00000000	      0.00000000
      6.43000000	      0.00000000	     -0.00000000	      0.00000000	      0.00000000	      0.00000000	      0.00000000	      0.00000000	      0.00000000	      0.00000000	     -7.24370623	    116.93955994	   -425.72534180	   -270.50931802	  -1149.12105145	      0.00000000	      0.00000000	      0.00000000	   1431.72297932	      9.19053231	   -113.31672749	   -359.55657959	   -297.45891360	   -720.96506933	      0.00000000	      0.00000000	     -0.00000000	  -1839.02291838	      0.00000000	     -0.00000000	      0.00000000	      0.00000000	      0.00000000	      0.00000000	      0.00000000	      0.00000000	      0.00000000
      6.44000000	      0.00000000	     -0.00000000	      0.00000000	      0.00000000	      0.00000000	      0.00000000	      0.00000000	      0.00000000	      0.00000000	     -7.20688391	    117.13401794	   -426.28491211	   -270.65244496	  -1150.52974434	      0.00000000	      0.00000000	      0.00000000	   1472.64003135	      9.38578664	   -113.36962210	   -358.43869019	   -297.48751776	   -721.33641399	      0.00000000	      0.00000000	     -0.00000000	  -1809.36261989	      0.00000000	     -0.00000000	      0.00000000	      0.00000000	      0.00000000	      0.00000000	      0.00000000	      0.00000000	      0.00000000
      6.45000000	      0.00000000	     -0.00000000	      0.00000000	      0.00000000	      0.00000000	      0.00000000	      0.00000000	      0.00000000	      0.00000000	     -6.85184431	    116.58256531	   -424.38006592	   -270.94900290	  -1149.70501707	      0.00000000	      0.00000000	      0.00000000	   1494.69422916	      9.36852990	   -113.36954580	   -358.57873535	   -297.81307180	   -721.41598336	      0.00000000	     -0.00000000	     -0.00000000	  -1836.24251372	      0.00000000	     -0.00000000	      0.00000000	      0.00000000	      0.00000000	      0.00000000	      0.00000000	      0.00000000	      0.00000000
      6.46000000	      0.00000000	     -0.00000000	      0.00000000	      0.00000000	      0.00000000	      0.00000000	      0.00000000	      0.00000000	      0.00000000	     -6.97564125	    116.51064301	   -422.82455444	   -270.94334042	  -1149.61821371	      0.00000000	      0.00000000	      0.00000000	   1453.17632875	      9.59801444	   -113.56450737	   -359.90264893	   -297.88521381	   -720.81715808	      0.00000000	      0.00000000	     -0.00000000	  -1723.18512804	      0.00000000	     -0.00000000	      0.00000000	      0.00000000	      0.00000000	      0.00000000	      0.00000000	      0.00000000	      0.00000000
